<svg width="15" height="15" viewBox="0 0 15 15" fill="none" xmlns="http://www.w3.org/2000/svg">
<g clip-path="url(#clip0_2_212)">
<path d="M13.1688 1.79224H1.83426C0.822471 1.79224 0 2.61471 0 3.6265V11.3732C0 12.385 0.822471 13.2075 1.83426 13.2075H13.1657C14.1775 13.2075 15 12.385 15 11.3732V3.6296C15.0031 2.61781 14.1806 1.79224 13.1688 1.79224ZM14.1651 11.3732C14.1651 11.9226 13.7182 12.3695 13.1688 12.3695H1.83426C1.28492 12.3695 0.837989 11.9226 0.837989 11.3732V3.6296C0.837989 3.08026 1.28492 2.63333 1.83426 2.63333H13.1657C13.7151 2.63333 14.162 3.08026 14.162 3.6296V11.3732H14.1651Z" fill="#999999"/>
<path d="M9.45994 7.40371L13.1285 4.11383C13.2992 3.95864 13.3147 3.69483 13.1595 3.52103C13.0043 3.35032 12.7405 3.33481 12.5667 3.48999L7.50774 8.03065L6.52078 7.14921C6.51767 7.1461 6.51457 7.143 6.51457 7.1399C6.49284 7.11817 6.47112 7.09955 6.44629 7.08093L2.43015 3.48689C2.25634 3.3317 1.99253 3.34722 1.83735 3.52103C1.68217 3.69483 1.69768 3.95864 1.87149 4.11383L5.58347 7.43164L1.88701 10.8922C1.71941 11.0505 1.7101 11.3143 1.86839 11.485C1.95218 11.5719 2.06392 11.6185 2.17565 11.6185C2.27807 11.6185 2.38049 11.5812 2.46119 11.5067L6.21351 7.99651L7.23151 8.90588C7.31221 8.97726 7.41153 9.0114 7.51084 9.0114C7.61016 9.0114 7.71258 8.97416 7.79017 8.90278L8.83611 7.96547L12.5667 11.5099C12.6474 11.5874 12.7529 11.6247 12.8554 11.6247C12.9671 11.6247 13.0757 11.5812 13.1595 11.4943C13.3178 11.3267 13.3116 11.0598 13.144 10.9015L9.45994 7.40371Z" fill="#999999"/>
</g>
<defs>
<clipPath id="clip0_2_212">
<rect width="15" height="15" fill="white"/>
</clipPath>
</defs>
</svg>
