<svg width="40" height="40" viewBox="0 0 40 40" fill="none" xmlns="http://www.w3.org/2000/svg">
<g clip-path="url(#clip0_2_36)">
<path d="M39.3332 0H9.33328C8.96511 0 8.66661 0.298499 8.66661 0.666665V10.6666H9.99995V1.33333H38.6666V37.9999C38.673 38.3505 38.4025 38.6442 38.0526 38.6666C37.9952 38.6666 37.9379 38.6619 37.8806 38.6606C37.7626 38.6573 37.6446 38.6546 37.5286 38.6426C37.5186 38.6426 37.5092 38.6426 37.4992 38.6386C35.3219 38.4006 33.602 36.6823 33.3619 34.5053C33.3619 34.4959 33.3586 34.4859 33.3572 34.4766C33.3411 34.3182 33.3331 34.1591 33.3332 33.9999V32.6666C33.3332 32.2984 33.0347 31.9999 32.6666 31.9999H9.99995V20H8.66661V31.9999H3.33329C2.96513 31.9999 2.66663 32.2984 2.66663 32.6666V33.9999C2.67029 37.3121 5.35445 39.9962 8.66661 39.9999H38.0666C39.1484 39.9716 40.0082 39.0821 39.9999 37.9999V0.666665C39.9999 0.298499 39.7014 0 39.3332 0ZM8.66661 38.6666C6.09054 38.6637 4.00287 36.576 3.99996 33.9999V33.3333H31.9999V33.9999C32.0008 34.2198 32.0135 34.4394 32.0379 34.6579C32.0439 34.7159 32.0552 34.7719 32.0632 34.8293C32.0852 34.9906 32.1119 35.1513 32.1472 35.3093C32.1592 35.3646 32.1746 35.4193 32.1886 35.4746C32.2292 35.6353 32.2752 35.7933 32.3286 35.9493C32.3439 35.9939 32.3599 36.0379 32.3766 36.0826C32.4372 36.2479 32.5059 36.4093 32.5812 36.5686C32.5972 36.6013 32.6119 36.6353 32.6279 36.6653C32.7115 36.8342 32.8032 36.9983 32.9032 37.1579C32.9166 37.1793 32.9286 37.2013 32.9419 37.2246C33.0506 37.3948 33.1679 37.5595 33.2932 37.7179L33.3146 37.7466C33.4601 37.9293 33.6159 38.1036 33.7812 38.2686C33.9248 38.4108 34.0736 38.5442 34.2279 38.6686L8.66661 38.6666Z" fill="#4985FF"/>
<path d="M22 18.6666C22.1768 18.6666 22.3463 18.5963 22.4713 18.4713L25.1379 15.8046C25.3982 15.5443 25.3982 15.1223 25.1379 14.8619L22.4713 12.1953C22.3463 12.0703 22.1768 11.9999 22 11.9999H3.33333C1.49241 11.9999 0 13.4924 0 15.3333C0 17.1742 1.49241 18.6666 3.33333 18.6666H22ZM21.828 13.4373L23.7239 15.3333L21.828 17.2293L21.354 15.3333L21.828 13.4373ZM5.33332 13.3333H20.48L20.1466 14.6666H6.66665V15.9999H20.1466L20.48 17.3333H5.33332V13.3333ZM1.33333 15.3333C1.33333 14.2287 2.22875 13.3333 3.33333 13.3333H3.99999V17.3333H3.33333C2.22875 17.3333 1.33333 16.4378 1.33333 15.3333Z" fill="#4985FF"/>
<path d="M15.3333 28.6666H35.3332C35.7014 28.6666 35.9999 28.3681 35.9999 27.9999V7.99999C35.9998 7.63183 35.7013 7.33341 35.3331 7.3335C35.1563 7.3335 34.9869 7.40375 34.8619 7.52866L14.8619 27.5286C14.6016 27.789 14.6017 28.2111 14.8621 28.4714C14.9871 28.5964 15.1565 28.6666 15.3333 28.6666ZM34.6666 9.60932V11.3333H33.3332V12.6666H34.6666V14H33.3332V15.3333H34.6666V16.6666H33.3332V18H34.6666V19.3333H33.3332V20.6666H34.6666V22H33.3332V23.3333H34.6666V24.6666H33.3332V25.9999H34.6666V27.3333H33.3332V25.9999H31.9999V27.3333H30.6666V25.9999H29.3333V27.3333H27.9999V25.9999H26.6666V27.3333H25.3333V25.9999H23.9999V27.3333H22.6666V25.9999H21.3333V27.3333H19.9999V25.9999H18.6666V27.3333H16.9426L34.6666 9.60932Z" fill="#4985FF"/>
<path d="M24.9899 24.6667H31.3332C31.7014 24.6667 31.9999 24.3682 31.9999 24V17.6567C31.9998 17.2885 31.7013 16.9901 31.3331 16.9902C31.1563 16.9902 30.9869 17.0604 30.8619 17.1853L24.5186 23.5287C24.2582 23.7891 24.2583 24.2112 24.5187 24.4715C24.6437 24.5964 24.8131 24.6667 24.9899 24.6667ZM30.6666 19.2667V23.3333H26.5999L30.6666 19.2667Z" fill="#4985FF"/>
<path d="M30.6666 4H17.3333V5.33333H30.6666V4Z" fill="#4985FF"/>
<path d="M32.6666 6.66663H15.3333V7.99996H32.6666V6.66663Z" fill="#4985FF"/>
<path d="M15.3334 20.6666H11.3334V22H15.3334V20.6666Z" fill="#4985FF"/>
<path d="M14 23.3333H11.3334V24.6666H14V23.3333Z" fill="#4985FF"/>
</g>
<defs>
<clipPath id="clip0_2_36">
<rect width="40" height="40" fill="white"/>
</clipPath>
</defs>
</svg>
